<?xml version="1.0" encoding="UTF-8" standalone="no"?>
<!-- Created with Inkscape (http://www.inkscape.org/) -->

<svg
   xmlns:dc="http://purl.org/dc/elements/1.1/"
   xmlns:cc="http://creativecommons.org/ns#"
   xmlns:rdf="http://www.w3.org/1999/02/22-rdf-syntax-ns#"
   xmlns:svg="http://www.w3.org/2000/svg"
   xmlns="http://www.w3.org/2000/svg"
   xmlns:sodipodi="http://sodipodi.sourceforge.net/DTD/sodipodi-0.dtd"
   xmlns:inkscape="http://www.inkscape.org/namespaces/inkscape"
   id="svg2"
   version="1.1"
   inkscape:version="0.92+devel unknown"
   width="2021.25"
   height="1213.75"
   xml:space="preserve"
   sodipodi:docname="general-holons-structure.svg"
   viewBox="0 0 2021.25 1213.75"><metadata
     id="metadata8"><rdf:RDF><cc:Work
         rdf:about=""><dc:format>image/svg+xml</dc:format><dc:type
           rdf:resource="http://purl.org/dc/dcmitype/StillImage" /><dc:title></dc:title></cc:Work></rdf:RDF></metadata><defs
     id="defs6" /><sodipodi:namedview
     pagecolor="#ffffff"
     bordercolor="#666666"
     borderopacity="1"
     objecttolerance="10"
     gridtolerance="10"
     guidetolerance="10"
     inkscape:pageopacity="0"
     inkscape:pageshadow="2"
     inkscape:window-width="1366"
     inkscape:window-height="744"
     id="namedview4"
     showgrid="false"
     inkscape:snap-bbox="true"
     inkscape:bbox-paths="true"
     inkscape:bbox-nodes="true"
     inkscape:snap-bbox-edge-midpoints="true"
     inkscape:snap-bbox-midpoints="true"
     inkscape:object-nodes="false"
     inkscape:snap-object-midpoints="true"
     inkscape:snap-center="true"
     inkscape:snap-page="true"
     showguides="true"
     inkscape:guide-bbox="true"
     inkscape:zoom="0.27497788"
     inkscape:cx="826.84547"
     inkscape:cy="664.79446"
     inkscape:window-x="0"
     inkscape:window-y="24"
     inkscape:window-maximized="1"
     inkscape:current-layer="g12"><sodipodi:guide
       orientation="0,1"
       position="1138.6284,1175.6034"
       id="guide3279"
       inkscape:locked="false" /><sodipodi:guide
       orientation="0,1"
       position="922.76374,927.57506"
       id="guide3283"
       inkscape:locked="false" /><sodipodi:guide
       orientation="0,1"
       position="1274.449,644.11494"
       id="guide3324"
       inkscape:locked="false" /></sodipodi:namedview><g
     id="g10"
     inkscape:groupmode="layer"
     inkscape:label="general-hms-structure-eps-converted-to"
     transform="matrix(1.25,0,0,-1.25,0,1213.75)"><g
       id="g12"
       transform="scale(0.110225)"><path
         d="M 3346.93,3389.09 C 8490.23,4932.08 16205.2,2360.43 12347.7,560.273 8490.23,-1239.88 -1796.37,1846.1 3346.93,3389.09"
         style="fill:none;stroke:#000000;stroke-width:25.71649933;stroke-linecap:butt;stroke-linejoin:miter;stroke-miterlimit:10;stroke-dasharray:none;stroke-opacity:1"
         id="path14"
         inkscape:connector-curvature="0" /><path
         d="m 7680.09,8551.71 c 0,-131.35 -106.49,-237.84 -237.84,-237.84 -131.36,0 -237.84,106.49 -237.84,237.84 0,131.36 106.48,237.84 237.84,237.84 131.35,0 237.84,-106.48 237.84,-237.84"
         style="fill:#ffffff;fill-opacity:1;fill-rule:nonzero;stroke:none"
         id="path16"
         inkscape:connector-curvature="0" /><path
         d="m 7680.09,8551.71 c 0,-131.35 -106.49,-237.84 -237.84,-237.84 -131.36,0 -237.84,106.49 -237.84,237.84 0,131.36 106.48,237.84 237.84,237.84 131.35,0 237.84,-106.48 237.84,-237.84 z"
         style="fill:none;stroke:#000000;stroke-width:25.71649933;stroke-linecap:butt;stroke-linejoin:miter;stroke-miterlimit:10;stroke-dasharray:none;stroke-opacity:1"
         id="path18"
         inkscape:connector-curvature="0" /><path
         d="m 5879.93,7008.72 c 0,-131.35 -106.48,-237.84 -237.84,-237.84 -131.35,0 -237.84,106.49 -237.84,237.84 0,131.36 106.49,237.84 237.84,237.84 131.36,0 237.84,-106.48 237.84,-237.84"
         style="fill:#ffffff;fill-opacity:1;fill-rule:nonzero;stroke:none"
         id="path20"
         inkscape:connector-curvature="0" /><path
         d="m 5879.93,7008.72 c 0,-131.35 -106.48,-237.84 -237.84,-237.84 -131.35,0 -237.84,106.49 -237.84,237.84 0,131.36 106.49,237.84 237.84,237.84 131.36,0 237.84,-106.48 237.84,-237.84 z"
         style="fill:none;stroke:#000000;stroke-width:25.71649933;stroke-linecap:butt;stroke-linejoin:miter;stroke-miterlimit:10;stroke-dasharray:none;stroke-opacity:1"
         id="path22"
         inkscape:connector-curvature="0" /><path
         d="m 8177.43,7017.21 c 0,-126.66 -102.68,-229.34 -229.35,-229.34 -126.66,0 -229.34,102.68 -229.34,229.34 0,126.67 102.68,229.35 229.34,229.35 126.67,0 229.35,-102.68 229.35,-229.35"
         style="fill:#ffffff;fill-opacity:1;fill-rule:nonzero;stroke:none"
         id="path24"
         inkscape:connector-curvature="0" /><path
         d="m 8177.43,7017.21 c 0,-126.66 -102.68,-229.34 -229.35,-229.34 -126.66,0 -229.34,102.68 -229.34,229.34 0,126.67 102.68,229.35 229.34,229.35 126.67,0 229.35,-102.68 229.35,-229.35 z"
         style="fill:none;stroke:#000000;stroke-width:25.71649933;stroke-linecap:butt;stroke-linejoin:miter;stroke-miterlimit:10;stroke-dasharray:none;stroke-opacity:1"
         id="path26"
         inkscape:connector-curvature="0" /><path
         d="m 10508.9,7008.72 c 0,-131.35 -106.5,-237.84 -237.8,-237.84 -131.4,0 -237.9,106.49 -237.9,237.84 0,131.36 106.5,237.84 237.9,237.84 131.3,0 237.8,-106.48 237.8,-237.84"
         style="fill:#ffffff;fill-opacity:1;fill-rule:nonzero;stroke:none"
         id="path28"
         inkscape:connector-curvature="0" /><path
         d="m 10508.9,7008.72 c 0,-131.35 -106.5,-237.84 -237.8,-237.84 -131.4,0 -237.9,106.49 -237.9,237.84 0,131.36 106.5,237.84 237.9,237.84 131.3,0 237.8,-106.48 237.8,-237.84 z"
         style="fill:none;stroke:#000000;stroke-width:25.71649933;stroke-linecap:butt;stroke-linejoin:miter;stroke-miterlimit:10;stroke-dasharray:none;stroke-opacity:1"
         id="path30"
         inkscape:connector-curvature="0" /><path
         d="m 3051.12,4951.4 c 0,-131.35 -106.49,-237.84 -237.84,-237.84 -131.36,0 -237.84,106.49 -237.84,237.84 0,131.36 106.48,237.84 237.84,237.84 131.35,0 237.84,-106.48 237.84,-237.84"
         style="fill:#ffffff;fill-opacity:1;fill-rule:nonzero;stroke:none"
         id="path32"
         inkscape:connector-curvature="0" /><path
         d="m 3051.12,4951.4 c 0,-131.35 -106.49,-237.84 -237.84,-237.84 -131.36,0 -237.84,106.49 -237.84,237.84 0,131.36 106.48,237.84 237.84,237.84 131.35,0 237.84,-106.48 237.84,-237.84 z"
         style="fill:none;stroke:#000000;stroke-width:25.71649933;stroke-linecap:butt;stroke-linejoin:miter;stroke-miterlimit:10;stroke-dasharray:none;stroke-opacity:1"
         id="path34"
         inkscape:connector-curvature="0" /><path
         d="m 4594.11,4951.4 c 0,-131.35 -106.49,-237.84 -237.84,-237.84 -131.36,0 -237.84,106.49 -237.84,237.84 0,131.36 106.48,237.84 237.84,237.84 131.35,0 237.84,-106.48 237.84,-237.84"
         style="fill:#ffffff;fill-opacity:1;fill-rule:nonzero;stroke:none"
         id="path36"
         inkscape:connector-curvature="0" /><path
         d="m 4594.11,4951.4 c 0,-131.35 -106.49,-237.84 -237.84,-237.84 -131.36,0 -237.84,106.49 -237.84,237.84 0,131.36 106.48,237.84 237.84,237.84 131.35,0 237.84,-106.48 237.84,-237.84 z"
         style="fill:none;stroke:#000000;stroke-width:25.71649933;stroke-linecap:butt;stroke-linejoin:miter;stroke-miterlimit:10;stroke-dasharray:none;stroke-opacity:1"
         id="path38"
         inkscape:connector-curvature="0" /><path
         d="m 6651.43,4951.4 c 0,-131.35 -106.49,-237.84 -237.84,-237.84 -131.36,0 -237.84,106.49 -237.84,237.84 0,131.36 106.48,237.84 237.84,237.84 131.35,0 237.84,-106.48 237.84,-237.84"
         style="fill:#ffffff;fill-opacity:1;fill-rule:nonzero;stroke:none"
         id="path40"
         inkscape:connector-curvature="0" /><path
         d="m 6651.43,4951.4 c 0,-131.35 -106.49,-237.84 -237.84,-237.84 -131.36,0 -237.84,106.49 -237.84,237.84 0,131.36 106.48,237.84 237.84,237.84 131.35,0 237.84,-106.48 237.84,-237.84 z"
         style="fill:none;stroke:#000000;stroke-width:25.71649933;stroke-linecap:butt;stroke-linejoin:miter;stroke-miterlimit:10;stroke-dasharray:none;stroke-opacity:1"
         id="path42"
         inkscape:connector-curvature="0" /><path
         d="m 8708.75,4951.4 c 0,-131.35 -106.49,-237.84 -237.84,-237.84 -131.36,0 -237.84,106.49 -237.84,237.84 0,131.36 106.48,237.84 237.84,237.84 131.35,0 237.84,-106.48 237.84,-237.84"
         style="fill:#ffffff;fill-opacity:1;fill-rule:nonzero;stroke:none"
         id="path44"
         inkscape:connector-curvature="0" /><path
         d="m 8708.75,4951.4 c 0,-131.35 -106.49,-237.84 -237.84,-237.84 -131.36,0 -237.84,106.49 -237.84,237.84 0,131.36 106.48,237.84 237.84,237.84 131.35,0 237.84,-106.48 237.84,-237.84 z"
         style="fill:none;stroke:#000000;stroke-width:25.71649933;stroke-linecap:butt;stroke-linejoin:miter;stroke-miterlimit:10;stroke-dasharray:none;stroke-opacity:1"
         id="path46"
         inkscape:connector-curvature="0" /><path
         d="m 9994.57,4951.4 c 0,-131.35 -106.48,-237.84 -237.84,-237.84 -131.35,0 -237.84,106.49 -237.84,237.84 0,131.36 106.49,237.84 237.84,237.84 131.36,0 237.84,-106.48 237.84,-237.84"
         style="fill:#ffffff;fill-opacity:1;fill-rule:nonzero;stroke:none"
         id="path48"
         inkscape:connector-curvature="0" /><path
         d="m 9994.57,4951.4 c 0,-131.35 -106.48,-237.84 -237.84,-237.84 -131.35,0 -237.84,106.49 -237.84,237.84 0,131.36 106.49,237.84 237.84,237.84 131.36,0 237.84,-106.48 237.84,-237.84 z"
         style="fill:none;stroke:#000000;stroke-width:25.71649933;stroke-linecap:butt;stroke-linejoin:miter;stroke-miterlimit:10;stroke-dasharray:none;stroke-opacity:1"
         id="path50"
         inkscape:connector-curvature="0" /><path
         d="m 11280.4,4951.4 c 0,-131.35 -106.5,-237.84 -237.8,-237.84 -131.4,0 -237.9,106.49 -237.9,237.84 0,131.36 106.5,237.84 237.9,237.84 131.3,0 237.8,-106.48 237.8,-237.84"
         style="fill:#ffffff;fill-opacity:1;fill-rule:nonzero;stroke:none"
         id="path52"
         inkscape:connector-curvature="0" /><path
         d="m 11280.4,4951.4 c 0,-131.35 -106.5,-237.84 -237.8,-237.84 -131.4,0 -237.9,106.49 -237.9,237.84 0,131.36 106.5,237.84 237.9,237.84 131.3,0 237.8,-106.48 237.8,-237.84 z"
         style="fill:none;stroke:#000000;stroke-width:25.71649933;stroke-linecap:butt;stroke-linejoin:miter;stroke-miterlimit:10;stroke-dasharray:none;stroke-opacity:1"
         id="path54"
         inkscape:connector-curvature="0" /><path
         d="m 12823.4,4951.4 c 0,-131.35 -106.5,-237.84 -237.9,-237.84 -131.3,0 -237.8,106.49 -237.8,237.84 0,131.36 106.5,237.84 237.8,237.84 131.4,0 237.9,-106.48 237.9,-237.84"
         style="fill:#ffffff;fill-opacity:1;fill-rule:nonzero;stroke:none"
         id="path56"
         inkscape:connector-curvature="0" /><path
         d="m 12823.4,4951.4 c 0,-131.35 -106.5,-237.84 -237.9,-237.84 -131.3,0 -237.8,106.49 -237.8,237.84 0,131.36 106.5,237.84 237.8,237.84 131.4,0 237.9,-106.48 237.9,-237.84 z"
         style="fill:none;stroke:#000000;stroke-width:25.71649933;stroke-linecap:butt;stroke-linejoin:miter;stroke-miterlimit:10;stroke-dasharray:none;stroke-opacity:1"
         id="path58"
         inkscape:connector-curvature="0" /><path
         d="M 5832.5,7171.93 7251.84,8388.5"
         style="fill:none;stroke:#000000;stroke-width:77.14949799;stroke-linecap:butt;stroke-linejoin:miter;stroke-miterlimit:10;stroke-dasharray:none;stroke-opacity:1"
         id="path60"
         inkscape:connector-curvature="0" /><path
         d="M 7520.54,8314.2 7872.23,7247.33"
         style="fill:none;stroke:#000000;stroke-width:77.14949799;stroke-linecap:butt;stroke-linejoin:miter;stroke-miterlimit:10;stroke-dasharray:none;stroke-opacity:1"
         id="path62"
         inkscape:connector-curvature="0" /><path
         d="M 7662.21,8431.73 10051.1,7128.7"
         style="fill:none;stroke:#000000;stroke-width:77.14949799;stroke-linecap:butt;stroke-linejoin:miter;stroke-miterlimit:10;stroke-dasharray:none;stroke-opacity:1"
         id="path64"
         inkscape:connector-curvature="0" /><path
         d="M 3016.06,5098.88 5439.31,6861.24"
         style="fill:none;stroke:#000000;stroke-width:77.14949799;stroke-linecap:butt;stroke-linejoin:miter;stroke-miterlimit:10;stroke-dasharray:none;stroke-opacity:1"
         id="path66"
         inkscape:connector-curvature="0" /><path
         d="M 4489.14,5163.99 5509.23,6796.13"
         style="fill:none;stroke:#000000;stroke-width:77.14949799;stroke-linecap:butt;stroke-linejoin:miter;stroke-miterlimit:10;stroke-dasharray:none;stroke-opacity:1"
         id="path68"
         inkscape:connector-curvature="0" /><path
         d="M 5730.1,6774.03 6325.58,5186.09"
         style="fill:none;stroke:#000000;stroke-width:77.14949799;stroke-linecap:butt;stroke-linejoin:miter;stroke-miterlimit:10;stroke-dasharray:none;stroke-opacity:1"
         id="path70"
         inkscape:connector-curvature="0" /><path
         d="m 10359.1,6774.03 595.5,-1587.94"
         style="fill:none;stroke:#000000;stroke-width:77.14949799;stroke-linecap:butt;stroke-linejoin:miter;stroke-miterlimit:10;stroke-dasharray:none;stroke-opacity:1"
         id="path72"
         inkscape:connector-curvature="0" /><path
         d="M 10458.5,6842.15 12398.2,5117.97"
         style="fill:none;stroke:#000000;stroke-width:77.14949799;stroke-linecap:butt;stroke-linejoin:miter;stroke-miterlimit:10;stroke-dasharray:none;stroke-opacity:1"
         id="path74"
         inkscape:connector-curvature="0" /><path
         d="m 8007.44,6782.69 402.07,-1588.7"
         style="fill:none;stroke:#000000;stroke-width:77.14949799;stroke-linecap:butt;stroke-linejoin:miter;stroke-miterlimit:10;stroke-dasharray:none;stroke-opacity:1"
         id="path76"
         inkscape:connector-curvature="0" /><path
         d="M 8107.6,6835.02 9592.03,5139.52"
         style="fill:none;stroke:#000000;stroke-width:77.14949799;stroke-linecap:butt;stroke-linejoin:miter;stroke-miterlimit:10;stroke-dasharray:none;stroke-opacity:1"
         id="path78"
         inkscape:connector-curvature="0" /><path
         d="M 3.78516,4160.58 H 14662.2"
         style="fill:none;stroke:#000000;stroke-width:25.71649933;stroke-linecap:butt;stroke-linejoin:miter;stroke-miterlimit:10;stroke-dasharray:257.165;stroke-dashoffset:0;stroke-opacity:1"
         id="path80"
         inkscape:connector-curvature="0" /><path
         d="m 3051.12,2636.92 c 0,-131.36 -106.49,-237.85 -237.84,-237.85 -131.36,0 -237.84,106.49 -237.84,237.85 0,131.35 106.48,237.84 237.84,237.84 131.35,0 237.84,-106.49 237.84,-237.84"
         style="fill:#ffffff;fill-opacity:1;fill-rule:nonzero;stroke:none"
         id="path130"
         inkscape:connector-curvature="0" /><path
         d="m 3051.12,2636.92 c 0,-131.36 -106.49,-237.85 -237.84,-237.85 -131.36,0 -237.84,106.49 -237.84,237.85 0,131.35 106.48,237.84 237.84,237.84 131.35,0 237.84,-106.49 237.84,-237.84 z"
         style="fill:none;stroke:#000000;stroke-width:25.71649933;stroke-linecap:butt;stroke-linejoin:miter;stroke-miterlimit:10;stroke-dasharray:none;stroke-opacity:1"
         id="path132"
         inkscape:connector-curvature="0" /><path
         d="m 4594.11,1351.09 c 0,-131.36 -106.49,-237.84 -237.84,-237.84 -131.36,0 -237.84,106.48 -237.84,237.84 0,131.36 106.48,237.84 237.84,237.84 131.35,0 237.84,-106.48 237.84,-237.84"
         style="fill:#ffffff;fill-opacity:1;fill-rule:nonzero;stroke:none"
         id="path134"
         inkscape:connector-curvature="0" /><path
         d="m 4594.11,1351.09 c 0,-131.36 -106.49,-237.84 -237.84,-237.84 -131.36,0 -237.84,106.48 -237.84,237.84 0,131.36 106.48,237.84 237.84,237.84 131.35,0 237.84,-106.48 237.84,-237.84 z"
         style="fill:none;stroke:#000000;stroke-width:25.71649933;stroke-linecap:butt;stroke-linejoin:miter;stroke-miterlimit:10;stroke-dasharray:none;stroke-opacity:1"
         id="path136"
         inkscape:connector-curvature="0" /><path
         d="m 6651.43,3151.25 c 0,-131.36 -106.49,-237.84 -237.84,-237.84 -131.36,0 -237.84,106.48 -237.84,237.84 0,131.35 106.48,237.84 237.84,237.84 131.35,0 237.84,-106.49 237.84,-237.84"
         style="fill:#ffffff;fill-opacity:1;fill-rule:nonzero;stroke:none"
         id="path138"
         inkscape:connector-curvature="0" /><path
         d="m 6651.43,3151.25 c 0,-131.36 -106.49,-237.84 -237.84,-237.84 -131.36,0 -237.84,106.48 -237.84,237.84 0,131.35 106.48,237.84 237.84,237.84 131.35,0 237.84,-106.49 237.84,-237.84 z"
         style="fill:none;stroke:#000000;stroke-width:25.71649933;stroke-linecap:butt;stroke-linejoin:miter;stroke-miterlimit:10;stroke-dasharray:none;stroke-opacity:1"
         id="path140"
         inkscape:connector-curvature="0" /><path
         d="M 2813.29,4713.56 V 2874.76"
         style="fill:none;stroke:#000000;stroke-width:25.71649933;stroke-linecap:butt;stroke-linejoin:miter;stroke-miterlimit:10;stroke-dasharray:257.165;stroke-dashoffset:0;stroke-opacity:1"
         id="path142"
         inkscape:connector-curvature="0" /><path
         d="M 4356.28,4713.56 V 1588.93"
         style="fill:none;stroke:#000000;stroke-width:25.71649933;stroke-linecap:butt;stroke-linejoin:miter;stroke-miterlimit:10;stroke-dasharray:257.165;stroke-dashoffset:0;stroke-opacity:1"
         id="path144"
         inkscape:connector-curvature="0" /><path
         d="M 6413.59,4713.56 V 3389.09"
         style="fill:none;stroke:#000000;stroke-width:25.71649933;stroke-linecap:butt;stroke-linejoin:miter;stroke-miterlimit:10;stroke-dasharray:257.165;stroke-dashoffset:0;stroke-opacity:1"
         id="path146"
         inkscape:connector-curvature="0" /><path
         d="M 3064.06,2636.92 H 5391.31"
         style="fill:none;stroke:#000000;stroke-width:25.71649933;stroke-linecap:butt;stroke-linejoin:miter;stroke-miterlimit:10;stroke-dasharray:none;stroke-opacity:1"
         id="path148"
         inkscape:connector-curvature="0" /><path
         d="M 3005.87,2476.42 4163.68,1511.58"
         style="fill:none;stroke:#000000;stroke-width:25.71649933;stroke-linecap:butt;stroke-linejoin:miter;stroke-miterlimit:10;stroke-dasharray:none;stroke-opacity:1"
         id="path150"
         inkscape:connector-curvature="0" /><path
         d="M 7442.25,8300.93 V 3144.86"
         style="fill:none;stroke:#000000;stroke-width:25.71649933;stroke-linecap:butt;stroke-linejoin:miter;stroke-miterlimit:10;stroke-dasharray:257.165;stroke-dashoffset:0;stroke-opacity:1"
         id="path152"
         inkscape:connector-curvature="0" /><path
         d="m 7680.09,2894.08 c 0,-131.35 -106.49,-237.84 -237.84,-237.84 -131.36,0 -237.84,106.49 -237.84,237.84 0,131.36 106.48,237.84 237.84,237.84 131.35,0 237.84,-106.48 237.84,-237.84"
         style="fill:#ffffff;fill-opacity:1;fill-rule:nonzero;stroke:none"
         id="path154"
         inkscape:connector-curvature="0" /><path
         d="m 7680.09,2894.08 c 0,-131.35 -106.49,-237.84 -237.84,-237.84 -131.36,0 -237.84,106.49 -237.84,237.84 0,131.36 106.48,237.84 237.84,237.84 131.35,0 237.84,-106.48 237.84,-237.84 z"
         style="fill:none;stroke:#000000;stroke-width:25.71649933;stroke-linecap:butt;stroke-linejoin:miter;stroke-miterlimit:10;stroke-dasharray:none;stroke-opacity:1"
         id="path156"
         inkscape:connector-curvature="0" /><path
         d="M 7948.08,6775.16 V 1344.48"
         style="fill:none;stroke:#000000;stroke-width:25.71649933;stroke-linecap:butt;stroke-linejoin:miter;stroke-miterlimit:10;stroke-dasharray:257.165;stroke-dashoffset:0;stroke-opacity:1"
         id="path158"
         inkscape:connector-curvature="0" /><path
         d="m 9994.57,1608.26 c 0,-131.36 -106.48,-237.85 -237.84,-237.85 -131.35,0 -237.84,106.49 -237.84,237.85 0,131.35 106.49,237.84 237.84,237.84 131.36,0 237.84,-106.49 237.84,-237.84"
         style="fill:#ffffff;fill-opacity:1;fill-rule:nonzero;stroke:none"
         id="path160"
         inkscape:connector-curvature="0" /><path
         d="m 9994.57,1608.26 c 0,-131.36 -106.48,-237.85 -237.84,-237.85 -131.35,0 -237.84,106.49 -237.84,237.85 0,131.35 106.49,237.84 237.84,237.84 131.36,0 237.84,-106.49 237.84,-237.84 z"
         style="fill:none;stroke:#000000;stroke-width:25.71649933;stroke-linecap:butt;stroke-linejoin:miter;stroke-miterlimit:10;stroke-dasharray:none;stroke-opacity:1"
         id="path162"
         inkscape:connector-curvature="0" /><path
         d="m 12823.4,2122.59 c 0,-131.36 -106.5,-237.84 -237.9,-237.84 -131.3,0 -237.8,106.48 -237.8,237.84 0,131.35 106.5,237.84 237.8,237.84 131.4,0 237.9,-106.49 237.9,-237.84"
         style="fill:#ffffff;fill-opacity:1;fill-rule:nonzero;stroke:none"
         id="path164"
         inkscape:connector-curvature="0" /><path
         d="m 12823.4,2122.59 c 0,-131.36 -106.5,-237.84 -237.9,-237.84 -131.3,0 -237.8,106.48 -237.8,237.84 0,131.35 106.5,237.84 237.8,237.84 131.4,0 237.9,-106.49 237.9,-237.84 z"
         style="fill:none;stroke:#000000;stroke-width:25.71649933;stroke-linecap:butt;stroke-linejoin:miter;stroke-miterlimit:10;stroke-dasharray:none;stroke-opacity:1"
         id="path166"
         inkscape:connector-curvature="0" /><path
         d="m 8177.43,1102.42 c 0,-126.662 -102.68,-229.346 -229.35,-229.346 -126.66,0 -229.34,102.684 -229.34,229.346 0,126.67 102.68,229.35 229.34,229.35 126.67,0 229.35,-102.68 229.35,-229.35"
         style="fill:#ffffff;fill-opacity:1;fill-rule:nonzero;stroke:none"
         id="path168"
         inkscape:connector-curvature="0" /><path
         d="m 8177.43,1102.42 c 0,-126.662 -102.68,-229.346 -229.35,-229.346 -126.66,0 -229.34,102.684 -229.34,229.346 0,126.67 102.68,229.35 229.34,229.35 126.67,0 229.35,-102.68 229.35,-229.35 z"
         style="fill:none;stroke:#000000;stroke-width:25.71649933;stroke-linecap:butt;stroke-linejoin:miter;stroke-miterlimit:10;stroke-dasharray:none;stroke-opacity:1"
         id="path170"
         inkscape:connector-curvature="0" /><path
         d="m 6656.81,3090.44 542.21,-135.55"
         style="fill:none;stroke:#000000;stroke-width:25.71649933;stroke-linecap:butt;stroke-linejoin:miter;stroke-miterlimit:10;stroke-dasharray:none;stroke-opacity:1"
         id="path172"
         inkscape:connector-curvature="0" /><path
         d="m 7509.92,2654.38 372.4,-1319.04"
         style="fill:none;stroke:#000000;stroke-width:25.71649933;stroke-linecap:butt;stroke-linejoin:miter;stroke-miterlimit:10;stroke-dasharray:none;stroke-opacity:1"
         id="path174"
         inkscape:connector-curvature="0" /><path
         d="M 4580.5,1463.21 7218.01,2781.96"
         style="fill:none;stroke:#000000;stroke-width:25.71649933;stroke-linecap:butt;stroke-linejoin:miter;stroke-miterlimit:10;stroke-dasharray:none;stroke-opacity:1"
         id="path176"
         inkscape:connector-curvature="0" /><path
         d="m 8691.76,3416.91 c 0,-126.67 -102.68,-229.35 -229.35,-229.35 -126.66,0 -229.34,102.68 -229.34,229.35 0,126.66 102.68,229.34 229.34,229.34 126.67,0 229.35,-102.68 229.35,-229.34"
         style="fill:#ffffff;fill-opacity:1;fill-rule:nonzero;stroke:none"
         id="path178"
         inkscape:connector-curvature="0" /><path
         d="m 8691.76,3416.91 c 0,-126.67 -102.68,-229.35 -229.35,-229.35 -126.66,0 -229.34,102.68 -229.34,229.35 0,126.66 102.68,229.34 229.34,229.34 126.67,0 229.35,-102.68 229.35,-229.34 z"
         style="fill:none;stroke:#000000;stroke-width:25.71649933;stroke-linecap:butt;stroke-linejoin:miter;stroke-miterlimit:10;stroke-dasharray:none;stroke-opacity:1"
         id="path180"
         inkscape:connector-curvature="0" /><path
         d="m 8469.52,4700.68 -5.77,-1041.57"
         style="fill:none;stroke:#000000;stroke-width:25.71649933;stroke-linecap:butt;stroke-linejoin:miter;stroke-miterlimit:10;stroke-dasharray:257.165;stroke-dashoffset:0;stroke-opacity:1"
         id="path182"
         inkscape:connector-curvature="0" /><path
         d="m 7649.47,3000.28 597.5,306.22"
         style="fill:none;stroke:#000000;stroke-width:25.71649933;stroke-linecap:butt;stroke-linejoin:miter;stroke-miterlimit:10;stroke-dasharray:none;stroke-opacity:1"
         id="path184"
         inkscape:connector-curvature="0" /><path
         d="m 11263.4,2902.57 c 0,-126.66 -102.7,-229.34 -229.3,-229.34 -126.7,0 -229.4,102.68 -229.4,229.34 0,126.67 102.7,229.35 229.4,229.35 126.6,0 229.3,-102.68 229.3,-229.35"
         style="fill:#ffffff;fill-opacity:1;fill-rule:nonzero;stroke:none"
         id="path186"
         inkscape:connector-curvature="0" /><path
         d="m 11263.4,2902.57 c 0,-126.66 -102.7,-229.34 -229.3,-229.34 -126.7,0 -229.4,102.68 -229.4,229.34 0,126.67 102.7,229.35 229.4,229.35 126.6,0 229.3,-102.68 229.3,-229.35 z"
         style="fill:none;stroke:#000000;stroke-width:25.71649933;stroke-linecap:butt;stroke-linejoin:miter;stroke-miterlimit:10;stroke-dasharray:none;stroke-opacity:1"
         id="path188"
         inkscape:connector-curvature="0" /><path
         d="M 9756.73,4700.73 V 1858.93"
         style="fill:none;stroke:#000000;stroke-width:25.71649933;stroke-linecap:butt;stroke-linejoin:miter;stroke-miterlimit:10;stroke-dasharray:257.165;stroke-dashoffset:0;stroke-opacity:1"
         id="path190"
         inkscape:connector-curvature="0" /><path
         d="M 8603.43,3219.86 9611.06,1811.82"
         style="fill:none;stroke:#000000;stroke-width:25.71649933;stroke-linecap:butt;stroke-linejoin:miter;stroke-miterlimit:10;stroke-dasharray:none;stroke-opacity:1"
         id="path192"
         inkscape:connector-curvature="0" /><path
         d="m 8181.34,1167.66 1334.08,373.11"
         style="fill:none;stroke:#000000;stroke-width:25.71649933;stroke-linecap:butt;stroke-linejoin:miter;stroke-miterlimit:10;stroke-dasharray:none;stroke-opacity:1"
         id="path194"
         inkscape:connector-curvature="0" /><path
         d="M 12585.5,4700.62 V 2373.37"
         style="fill:none;stroke:#000000;stroke-width:25.71649933;stroke-linecap:butt;stroke-linejoin:miter;stroke-miterlimit:10;stroke-dasharray:257.165;stroke-dashoffset:0;stroke-opacity:1"
         id="path196"
         inkscape:connector-curvature="0" /><path
         d="m 11041.5,4700.68 -6.4,-1555.88"
         style="fill:none;stroke:#000000;stroke-width:25.71649933;stroke-linecap:butt;stroke-linejoin:miter;stroke-miterlimit:10;stroke-dasharray:257.165;stroke-dashoffset:0;stroke-opacity:1"
         id="path198"
         inkscape:connector-curvature="0" /><path
         d="m 10491.9,588.09 c 0,-126.664 -102.7,-229.348 -229.3,-229.348 -126.7,0 -229.4,102.684 -229.4,229.348 0,126.664 102.7,229.348 229.4,229.348 126.6,0 229.3,-102.684 229.3,-229.348"
         style="fill:#ffffff;fill-opacity:1;fill-rule:nonzero;stroke:none"
         id="path200"
         inkscape:connector-curvature="0" /><path
         d="m 10491.9,588.09 c 0,-126.664 -102.7,-229.348 -229.3,-229.348 -126.7,0 -229.4,102.684 -229.4,229.348 0,126.664 102.7,229.348 229.4,229.348 126.6,0 229.3,-102.684 229.3,-229.348 z"
         style="fill:none;stroke:#000000;stroke-width:25.71649933;stroke-linecap:butt;stroke-linejoin:miter;stroke-miterlimit:10;stroke-dasharray:none;stroke-opacity:1"
         id="path202"
         inkscape:connector-curvature="0" /><path
         d="m 10270.8,6783 -7.9,-5952.629"
         style="fill:none;stroke:#000000;stroke-width:25.71649933;stroke-linecap:butt;stroke-linejoin:miter;stroke-miterlimit:10;stroke-dasharray:257.165;stroke-dashoffset:0;stroke-opacity:1"
         id="path204"
         inkscape:connector-curvature="0" /><path
         d="m 9932.77,1786.64 931.33,943.72"
         style="fill:none;stroke:#000000;stroke-width:25.71649933;stroke-linecap:butt;stroke-linejoin:miter;stroke-miterlimit:10;stroke-dasharray:none;stroke-opacity:1"
         id="path206"
         inkscape:connector-curvature="0" /><path
         d="m 11250.4,2793.79 1111.2,-558.61"
         style="fill:none;stroke:#000000;stroke-width:25.71649933;stroke-linecap:butt;stroke-linejoin:miter;stroke-miterlimit:10;stroke-dasharray:none;stroke-opacity:1"
         id="path208"
         inkscape:connector-curvature="0" /><path
         d="m 10464.6,721.555 1912,1262.985"
         style="fill:none;stroke:#000000;stroke-width:25.71649933;stroke-linecap:butt;stroke-linejoin:miter;stroke-miterlimit:10;stroke-dasharray:none;stroke-opacity:1"
         id="path210"
         inkscape:connector-curvature="0" /><path
         d="M 10026.2,640.609 8184.42,1049.9"
         style="fill:none;stroke:#000000;stroke-width:25.71649933;stroke-linecap:butt;stroke-linejoin:miter;stroke-miterlimit:10;stroke-dasharray:none;stroke-opacity:1"
         id="path212"
         inkscape:connector-curvature="0" /><path
         d="m 8200.16,8532.39 v 21.29 h 53.23 v 158.07 l -46.84,-32.46 v 24.75 l 49.03,32.73 h 23.35 v -183.09 h 48.97 v -21.29 h -127.74"
         style="fill:#000000;fill-opacity:1;fill-rule:nonzero;stroke:none"
         id="path216"
         inkscape:connector-curvature="0" /><path
         d="m 6393.62,6732.23 v 17.66 c 4.99,11.43 11.08,21.5 18.26,30.24 7.19,8.76 14.74,16.68 22.66,23.75 7.91,7.08 15.75,13.64 23.51,19.7 7.79,6.05 14.81,12.11 21.06,18.16 6.25,6.05 11.31,12.4 15.17,19.03 3.86,6.65 5.79,14.18 5.79,22.59 0,5.94 -0.87,11.16 -2.6,15.66 -1.7,4.5 -4.19,8.28 -7.45,11.35 -3.26,3.08 -7.16,5.38 -11.71,6.92 -4.54,1.53 -9.59,2.29 -15.13,2.29 -5.17,0 -10.03,-0.73 -14.57,-2.2 -4.55,-1.46 -8.6,-3.65 -12.15,-6.58 -3.52,-2.93 -6.42,-6.57 -8.68,-10.91 -2.24,-4.35 -3.69,-9.41 -4.35,-15.17 l -27.68,2.46 c 0.89,7.39 2.94,14.33 6.15,20.82 3.22,6.5 7.64,12.19 13.28,17.07 5.65,4.9 12.45,8.76 20.39,11.57 7.96,2.82 17.15,4.23 27.57,4.23 10.23,0 19.33,-1.23 27.31,-3.69 8.01,-2.44 14.76,-6.06 20.26,-10.85 5.5,-4.79 9.72,-10.71 12.64,-17.76 2.93,-7.03 4.39,-15.14 4.39,-24.32 0,-6.96 -1.25,-13.57 -3.76,-19.82 -2.5,-6.26 -5.85,-12.22 -10.04,-17.9 -4.19,-5.68 -9.05,-11.15 -14.57,-16.43 -5.5,-5.28 -11.26,-10.44 -17.26,-15.47 -6.02,-5.04 -12.08,-10.02 -18.2,-14.97 -6.1,-4.95 -11.83,-9.91 -17.2,-14.9 -5.37,-4.99 -10.17,-10.06 -14.41,-15.21 -4.21,-5.12 -7.5,-10.46 -9.87,-16.03 h 108.54 v -21.29 h -137.35"
         style="fill:#000000;fill-opacity:1;fill-rule:nonzero;stroke:none"
         id="path220"
         inkscape:connector-curvature="0" /><path
         d="m 6569.58,6732.23 v 21.29 h 53.22 v 158.08 l -46.84,-32.47 v 24.75 l 49.04,32.73 h 23.35 v -183.09 h 48.96 v -21.29 h -127.73"
         style="fill:#000000;fill-opacity:1;fill-rule:nonzero;stroke:none"
         id="path222"
         inkscape:connector-curvature="0" /><path
         d="m 8708.11,6732.23 v 17.66 c 4.98,11.43 11.07,21.5 18.26,30.24 7.18,8.76 14.73,16.68 22.65,23.75 7.92,7.08 15.76,13.64 23.52,19.7 7.78,6.05 14.8,12.11 21.05,18.16 6.26,6.05 11.32,12.4 15.18,19.03 3.85,6.65 5.78,14.18 5.78,22.59 0,5.94 -0.86,11.16 -2.59,15.66 -1.71,4.5 -4.19,8.28 -7.45,11.35 -3.26,3.08 -7.17,5.38 -11.71,6.92 -4.55,1.53 -9.59,2.29 -15.14,2.29 -5.16,0 -10.02,-0.73 -14.57,-2.2 -4.54,-1.46 -8.59,-3.65 -12.14,-6.58 -3.53,-2.93 -6.42,-6.57 -8.68,-10.91 -2.24,-4.35 -3.7,-9.41 -4.36,-15.17 l -27.68,2.46 c 0.89,7.39 2.94,14.33 6.16,20.82 3.21,6.5 7.64,12.19 13.27,17.07 5.66,4.9 12.45,8.76 20.39,11.57 7.96,2.82 17.16,4.23 27.58,4.23 10.22,0 19.33,-1.23 27.31,-3.69 8.01,-2.44 14.76,-6.06 20.26,-10.85 5.5,-4.79 9.71,-10.71 12.64,-17.76 2.93,-7.03 4.39,-15.14 4.39,-24.32 0,-6.96 -1.25,-13.57 -3.76,-19.82 -2.51,-6.26 -5.86,-12.22 -10.05,-17.9 -4.19,-5.68 -9.04,-11.15 -14.56,-16.43 -5.5,-5.28 -11.26,-10.44 -17.27,-15.47 -6.01,-5.04 -12.07,-10.02 -18.2,-14.97 -6.1,-4.95 -11.83,-9.91 -17.19,-14.9 -5.37,-4.99 -10.17,-10.06 -14.41,-15.21 -4.21,-5.12 -7.5,-10.46 -9.88,-16.03 h 108.55 v -21.29 h -137.35"
         style="fill:#000000;fill-opacity:1;fill-rule:nonzero;stroke:none"
         id="path226"
         inkscape:connector-curvature="0" /><path
         d="m 8877.68,6732.23 v 17.66 c 4.98,11.43 11.07,21.5 18.26,30.24 7.18,8.76 14.73,16.68 22.65,23.75 7.92,7.08 15.76,13.64 23.52,19.7 7.78,6.05 14.8,12.11 21.05,18.16 6.26,6.05 11.32,12.4 15.18,19.03 3.85,6.65 5.78,14.18 5.78,22.59 0,5.94 -0.86,11.16 -2.59,15.66 -1.71,4.5 -4.19,8.28 -7.45,11.35 -3.26,3.08 -7.17,5.38 -11.71,6.92 -4.55,1.53 -9.59,2.29 -15.14,2.29 -5.16,0 -10.02,-0.73 -14.57,-2.2 -4.54,-1.46 -8.59,-3.65 -12.14,-6.58 -3.53,-2.93 -6.42,-6.57 -8.68,-10.91 -2.24,-4.35 -3.7,-9.41 -4.36,-15.17 l -27.68,2.46 c 0.89,7.39 2.94,14.33 6.16,20.82 3.21,6.5 7.64,12.19 13.27,17.07 5.66,4.9 12.45,8.76 20.39,11.57 7.96,2.82 17.16,4.23 27.58,4.23 10.22,0 19.33,-1.23 27.31,-3.69 8.01,-2.44 14.76,-6.06 20.26,-10.85 5.5,-4.79 9.71,-10.71 12.64,-17.76 2.93,-7.03 4.39,-15.14 4.39,-24.32 0,-6.96 -1.25,-13.57 -3.76,-19.82 -2.5,-6.26 -5.86,-12.22 -10.05,-17.9 -4.19,-5.68 -9.04,-11.15 -14.56,-16.43 -5.5,-5.28 -11.26,-10.44 -17.27,-15.47 -6.01,-5.04 -12.07,-10.02 -18.2,-14.97 -6.1,-4.95 -11.83,-9.91 -17.19,-14.9 -5.37,-4.99 -10.17,-10.06 -14.41,-15.21 -4.21,-5.12 -7.5,-10.46 -9.88,-16.03 h 108.55 v -21.29 h -137.35"
         style="fill:#000000;fill-opacity:1;fill-rule:nonzero;stroke:none"
         id="path228"
         inkscape:connector-curvature="0" /><path
         d="m 11022.6,6732.23 v 17.66 c 5,11.43 11.1,21.5 18.3,30.24 7.1,8.76 14.7,16.68 22.6,23.75 7.9,7.08 15.8,13.64 23.5,19.7 7.8,6.05 14.8,12.11 21.1,18.16 6.2,6.05 11.3,12.4 15.1,19.03 3.9,6.65 5.8,14.18 5.8,22.59 0,5.94 -0.8,11.16 -2.6,15.66 -1.7,4.5 -4.2,8.28 -7.4,11.35 -3.3,3.08 -7.2,5.38 -11.7,6.92 -4.6,1.53 -9.6,2.29 -15.2,2.29 -5.1,0 -10,-0.73 -14.5,-2.2 -4.6,-1.46 -8.6,-3.65 -12.2,-6.58 -3.5,-2.93 -6.4,-6.57 -8.6,-10.91 -2.3,-4.35 -3.7,-9.41 -4.4,-15.17 l -27.7,2.46 c 0.9,7.39 3,14.33 6.2,20.82 3.2,6.5 7.6,12.19 13.2,17.07 5.7,4.9 12.5,8.76 20.4,11.57 8,2.82 17.2,4.23 27.6,4.23 10.2,0 19.3,-1.23 27.3,-3.69 8,-2.44 14.8,-6.06 20.3,-10.85 5.5,-4.79 9.7,-10.71 12.6,-17.76 2.9,-7.03 4.4,-15.14 4.4,-24.32 0,-6.96 -1.2,-13.57 -3.7,-19.82 -2.6,-6.26 -5.9,-12.22 -10.1,-17.9 -4.2,-5.68 -9,-11.15 -14.6,-16.43 -5.5,-5.28 -11.2,-10.44 -17.2,-15.47 -6,-5.04 -12.1,-10.02 -18.2,-14.97 -6.1,-4.95 -11.9,-9.91 -17.2,-14.9 -5.4,-4.99 -10.2,-10.06 -14.4,-15.21 -4.2,-5.12 -7.5,-10.46 -9.9,-16.03 h 108.5 v -21.29 h -137.3"
         style="fill:#000000;fill-opacity:1;fill-rule:nonzero;stroke:none"
         id="path232"
         inkscape:connector-curvature="0" /><path
         d="m 11330.5,6790.34 c 0,-9.53 -1.5,-18.04 -4.6,-25.51 -3.1,-7.45 -7.6,-13.76 -13.5,-18.93 -5.9,-5.14 -13.3,-9.07 -22,-11.77 -8.8,-2.68 -18.8,-4.03 -30.1,-4.03 -12.8,0 -23.6,1.58 -32.4,4.73 -8.7,3.15 -16,7.31 -21.6,12.51 -5.7,5.21 -10,11.12 -12.8,17.76 -2.8,6.65 -4.7,13.52 -5.6,20.62 l 27.7,2.46 c 0.8,-5.5 2.2,-10.51 4.3,-15.03 2.1,-4.51 4.9,-8.37 8.5,-11.61 3.6,-3.24 8,-5.75 13.3,-7.52 5.2,-1.75 11.5,-2.63 18.7,-2.63 13.2,0 23.6,3.35 31.2,10.05 7.5,6.72 11.3,16.7 11.3,29.94 0,7.8 -1.7,14.08 -5.2,18.82 -3.3,4.77 -7.6,8.49 -12.7,11.15 -5,2.66 -10.6,4.44 -16.5,5.32 -6,0.91 -11.5,1.37 -16.5,1.37 h -15.1 v 21.28 h 14.2 c 5,0 10.2,0.5 15.5,1.5 5.4,1.02 10.2,2.85 14.6,5.49 4.5,2.66 8.1,6.24 11,10.74 2.8,4.53 4.3,10.31 4.3,17.34 0,10.86 -3.2,19.45 -9.7,25.74 -6.4,6.3 -16,9.45 -28.7,9.45 -11.5,0 -20.8,-2.98 -28,-8.95 -7.1,-5.96 -11.2,-14.37 -12.4,-25.21 l -25.5,2.03 c 1,9.02 3.5,16.88 7.4,23.58 3.9,6.7 8.8,12.26 14.7,16.67 6,4.41 12.8,7.7 20.4,9.88 7.7,2.19 15.9,3.29 24.5,3.29 11.4,0 21.2,-1.41 29.5,-4.23 8.2,-2.81 15,-6.64 20.2,-11.47 5.2,-4.83 9.1,-10.5 11.5,-17 2.5,-6.5 3.8,-13.43 3.8,-20.79 0,-5.92 -0.9,-11.47 -2.5,-16.63 -1.7,-5.15 -4.3,-9.78 -7.8,-13.91 -3.5,-4.1 -8,-7.64 -13.5,-10.61 -5.4,-2.95 -11.9,-5.19 -19.6,-6.72 v -0.6 c 8.4,-0.89 15.8,-2.78 22,-5.69 6.3,-2.88 11.4,-6.48 15.5,-10.81 4.1,-4.3 7.1,-9.2 9.2,-14.7 2,-5.5 3,-11.29 3,-17.37"
         style="fill:#000000;fill-opacity:1;fill-rule:nonzero;stroke:none"
         id="path234"
         inkscape:connector-curvature="0" /><path
         d="m 3703.19,4733.03 c 0,-9.54 -1.55,-18.05 -4.63,-25.52 -3.08,-7.45 -7.59,-13.76 -13.54,-18.93 -5.92,-5.14 -13.26,-9.07 -22.02,-11.77 -8.76,-2.69 -18.77,-4.03 -30.04,-4.03 -12.82,0 -23.61,1.58 -32.4,4.73 -8.76,3.15 -15.97,7.31 -21.65,12.51 -5.68,5.21 -9.94,11.13 -12.77,17.76 -2.84,6.65 -4.71,13.52 -5.59,20.62 l 27.67,2.46 c 0.78,-5.5 2.21,-10.51 4.3,-15.03 2.1,-4.51 4.95,-8.37 8.54,-11.61 3.6,-3.24 8.02,-5.75 13.28,-7.52 5.25,-1.75 11.48,-2.63 18.69,-2.63 13.24,0 23.63,3.35 31.17,10.05 7.54,6.72 11.31,16.7 11.31,29.94 0,7.8 -1.71,14.08 -5.12,18.83 -3.39,4.76 -7.63,8.48 -12.71,11.14 -5.08,2.66 -10.6,4.43 -16.57,5.32 -5.96,0.91 -11.46,1.36 -16.5,1.36 h -15.1 V 4792 h 14.27 c 4.97,0 10.13,0.5 15.47,1.5 5.35,1.02 10.23,2.85 14.64,5.49 4.41,2.66 8.05,6.24 10.91,10.74 2.88,4.53 4.32,10.31 4.32,17.34 0,10.86 -3.22,19.45 -9.68,25.74 -6.43,6.3 -15.99,9.45 -28.67,9.45 -11.53,0 -20.87,-2.98 -28.01,-8.95 -7.12,-5.96 -11.26,-14.37 -12.41,-25.21 l -25.55,2.02 c 1.07,9.03 3.54,16.9 7.42,23.59 3.88,6.7 8.8,12.25 14.74,16.67 5.97,4.41 12.77,7.7 20.42,9.88 7.67,2.19 15.83,3.29 24.45,3.29 11.42,0 21.25,-1.41 29.47,-4.23 8.25,-2.81 15,-6.64 20.23,-11.47 5.24,-4.83 9.08,-10.5 11.54,-17 2.49,-6.5 3.73,-13.43 3.73,-20.79 0,-5.92 -0.83,-11.47 -2.5,-16.63 -1.66,-5.15 -4.25,-9.78 -7.78,-13.91 -3.52,-4.1 -8,-7.64 -13.44,-10.61 -5.43,-2.95 -11.97,-5.19 -19.62,-6.72 v -0.6 c 8.42,-0.88 15.76,-2.78 22.02,-5.68 6.25,-2.89 11.41,-6.49 15.47,-10.82 4.08,-4.3 7.14,-9.2 9.17,-14.7 2.05,-5.5 3.07,-11.29 3.07,-17.36"
         style="fill:#000000;fill-opacity:1;fill-rule:nonzero;stroke:none"
         id="path238"
         inkscape:connector-curvature="0" /><path
         d="m 3740.76,4674.91 v 21.29 h 53.22 v 158.08 l -46.83,-32.47 v 24.75 l 49.03,32.73 h 23.35 V 4696.2 h 48.97 v -21.29 h -127.74"
         style="fill:#000000;fill-opacity:1;fill-rule:nonzero;stroke:none"
         id="path240"
         inkscape:connector-curvature="0" /><path
         d="m 4989.01,4733.03 c 0,-9.54 -1.54,-18.05 -4.62,-25.52 -3.09,-7.45 -7.6,-13.76 -13.54,-18.93 -5.92,-5.14 -13.26,-9.07 -22.02,-11.77 -8.76,-2.69 -18.78,-4.03 -30.04,-4.03 -12.82,0 -23.62,1.58 -32.4,4.73 -8.76,3.15 -15.98,7.31 -21.66,12.51 -5.68,5.21 -9.93,11.13 -12.77,17.76 -2.84,6.65 -4.7,13.52 -5.59,20.62 l 27.68,2.46 c 0.77,-5.5 2.2,-10.51 4.29,-15.03 2.11,-4.51 4.96,-8.37 8.55,-11.61 3.59,-3.24 8.02,-5.75 13.27,-7.52 5.26,-1.75 11.49,-2.63 18.7,-2.63 13.23,0 23.62,3.35 31.16,10.05 7.55,6.72 11.32,16.7 11.32,29.94 0,7.8 -1.71,14.08 -5.13,18.83 -3.39,4.76 -7.63,8.48 -12.71,11.14 -5.07,2.66 -10.59,4.43 -16.56,5.32 -5.97,0.91 -11.47,1.36 -16.5,1.36 h -15.1 V 4792 h 14.27 c 4.96,0 10.12,0.5 15.47,1.5 5.34,1.02 10.22,2.85 14.63,5.49 4.41,2.66 8.05,6.24 10.91,10.74 2.89,4.53 4.33,10.31 4.33,17.34 0,10.86 -3.23,19.45 -9.68,25.74 -6.43,6.3 -15.99,9.45 -28.68,9.45 -11.53,0 -20.86,-2.98 -28,-8.95 -7.13,-5.96 -11.26,-14.37 -12.41,-25.21 l -25.55,2.02 c 1.07,9.03 3.54,16.9 7.42,23.59 3.88,6.7 8.79,12.25 14.74,16.67 5.96,4.41 12.77,7.7 20.42,9.88 7.67,2.19 15.82,3.29 24.45,3.29 11.42,0 21.24,-1.41 29.47,-4.23 8.25,-2.81 14.99,-6.64 20.23,-11.47 5.23,-4.83 9.08,-10.5 11.54,-17 2.48,-6.5 3.72,-13.43 3.72,-20.79 0,-5.92 -0.83,-11.47 -2.49,-16.63 -1.66,-5.15 -4.26,-9.78 -7.78,-13.91 -3.53,-4.1 -8.01,-7.64 -13.44,-10.61 -5.44,-2.95 -11.98,-5.19 -19.63,-6.72 v -0.6 c 8.43,-0.88 15.77,-2.78 22.02,-5.68 6.25,-2.89 11.41,-6.49 15.47,-10.82 4.08,-4.3 7.14,-9.2 9.18,-14.7 2.04,-5.5 3.06,-11.29 3.06,-17.36"
         style="fill:#000000;fill-opacity:1;fill-rule:nonzero;stroke:none"
         id="path244"
         inkscape:connector-curvature="0" /><path
         d="m 5020.2,4674.91 v 17.66 c 4.99,11.43 11.08,21.5 18.26,30.24 7.19,8.76 14.74,16.68 22.66,23.76 7.91,7.07 15.75,13.63 23.51,19.69 7.79,6.05 14.81,12.11 21.06,18.16 6.26,6.05 11.31,12.4 15.17,19.03 3.86,6.65 5.79,14.18 5.79,22.59 0,5.94 -0.87,11.16 -2.6,15.66 -1.71,4.5 -4.19,8.28 -7.45,11.35 -3.26,3.08 -7.16,5.38 -11.71,6.91 -4.54,1.54 -9.59,2.3 -15.13,2.3 -5.17,0 -10.03,-0.73 -14.57,-2.19 -4.55,-1.47 -8.6,-3.66 -12.15,-6.59 -3.52,-2.93 -6.42,-6.57 -8.68,-10.91 -2.24,-4.35 -3.69,-9.41 -4.36,-15.17 l -27.67,2.46 c 0.88,7.39 2.94,14.33 6.15,20.82 3.22,6.5 7.64,12.19 13.27,17.07 5.66,4.9 12.46,8.76 20.4,11.57 7.96,2.82 17.15,4.23 27.57,4.23 10.23,0 19.33,-1.23 27.32,-3.69 8,-2.44 14.75,-6.06 20.25,-10.85 5.5,-4.79 9.71,-10.71 12.64,-17.76 2.93,-7.03 4.39,-15.14 4.39,-24.32 0,-6.96 -1.25,-13.57 -3.75,-19.82 -2.51,-6.26 -5.86,-12.22 -10.05,-17.9 -4.19,-5.68 -9.05,-11.16 -14.57,-16.43 -5.5,-5.28 -11.25,-10.44 -17.27,-15.47 -6,-5.04 -12.07,-10.02 -18.19,-14.97 -6.1,-4.95 -11.83,-9.91 -17.2,-14.9 -5.37,-4.99 -10.17,-10.06 -14.4,-15.21 -4.22,-5.12 -7.51,-10.46 -9.88,-16.03 h 108.54 v -21.29 H 5020.2"
         style="fill:#000000;fill-opacity:1;fill-rule:nonzero;stroke:none"
         id="path246"
         inkscape:connector-curvature="0" /><path
         d="m 7046.33,4733.03 c 0,-9.54 -1.54,-18.05 -4.62,-25.52 -3.09,-7.45 -7.6,-13.76 -13.54,-18.93 -5.92,-5.14 -13.26,-9.07 -22.02,-11.77 -8.76,-2.69 -18.77,-4.03 -30.04,-4.03 -12.82,0 -23.62,1.58 -32.4,4.73 -8.76,3.15 -15.98,7.31 -21.66,12.51 -5.67,5.21 -9.93,11.13 -12.77,17.76 -2.84,6.65 -4.7,13.52 -5.59,20.62 l 27.68,2.46 c 0.77,-5.5 2.2,-10.51 4.29,-15.03 2.11,-4.51 4.96,-8.37 8.55,-11.61 3.59,-3.24 8.02,-5.75 13.27,-7.52 5.26,-1.75 11.49,-2.63 18.7,-2.63 13.23,0 23.62,3.35 31.16,10.05 7.55,6.72 11.32,16.7 11.32,29.94 0,7.8 -1.71,14.08 -5.13,18.83 -3.39,4.76 -7.63,8.48 -12.71,11.14 -5.07,2.66 -10.59,4.43 -16.56,5.32 -5.97,0.91 -11.47,1.36 -16.5,1.36 h -15.1 V 4792 h 14.27 c 4.96,0 10.12,0.5 15.46,1.5 5.35,1.02 10.23,2.85 14.64,5.49 4.42,2.66 8.05,6.24 10.92,10.74 2.88,4.53 4.32,10.31 4.32,17.34 0,10.86 -3.23,19.45 -9.68,25.74 -6.43,6.3 -15.99,9.45 -28.68,9.45 -11.53,0 -20.86,-2.98 -28,-8.95 -7.12,-5.96 -11.26,-14.37 -12.41,-25.21 l -25.55,2.02 c 1.07,9.03 3.54,16.9 7.42,23.59 3.88,6.7 8.79,12.25 14.74,16.67 5.96,4.41 12.77,7.7 20.42,9.88 7.67,2.19 15.82,3.29 24.45,3.29 11.42,0 21.24,-1.41 29.47,-4.23 8.25,-2.81 14.99,-6.64 20.23,-11.47 5.23,-4.83 9.08,-10.5 11.54,-17 2.48,-6.5 3.73,-13.43 3.73,-20.79 0,-5.92 -0.84,-11.47 -2.5,-16.63 -1.66,-5.15 -4.26,-9.78 -7.79,-13.91 -3.52,-4.1 -8,-7.64 -13.43,-10.61 -5.44,-2.95 -11.98,-5.19 -19.63,-6.72 v -0.6 c 8.43,-0.88 15.77,-2.78 22.02,-5.68 6.26,-2.89 11.41,-6.49 15.47,-10.82 4.08,-4.3 7.14,-9.2 9.18,-14.7 2.04,-5.5 3.06,-11.29 3.06,-17.36"
         style="fill:#000000;fill-opacity:1;fill-rule:nonzero;stroke:none"
         id="path250"
         inkscape:connector-curvature="0" /><path
         d="m 7215.9,4733.03 c 0,-9.54 -1.54,-18.05 -4.62,-25.52 -3.08,-7.45 -7.6,-13.76 -13.54,-18.93 -5.92,-5.14 -13.26,-9.07 -22.02,-11.77 -8.76,-2.69 -18.77,-4.03 -30.04,-4.03 -12.82,0 -23.62,1.58 -32.4,4.73 -8.76,3.15 -15.98,7.31 -21.66,12.51 -5.67,5.21 -9.93,11.13 -12.77,17.76 -2.84,6.65 -4.7,13.52 -5.59,20.62 l 27.68,2.46 c 0.77,-5.5 2.2,-10.51 4.29,-15.03 2.11,-4.51 4.96,-8.37 8.55,-11.61 3.59,-3.24 8.02,-5.75 13.27,-7.52 5.26,-1.75 11.49,-2.63 18.7,-2.63 13.23,0 23.63,3.35 31.16,10.05 7.55,6.72 11.32,16.7 11.32,29.94 0,7.8 -1.71,14.08 -5.13,18.83 -3.39,4.76 -7.63,8.48 -12.71,11.14 -5.07,2.66 -10.59,4.43 -16.56,5.32 -5.97,0.91 -11.47,1.36 -16.5,1.36 h -15.1 V 4792 h 14.27 c 4.96,0 10.12,0.5 15.46,1.5 5.35,1.02 10.23,2.85 14.64,5.49 4.42,2.66 8.05,6.24 10.92,10.74 2.88,4.53 4.32,10.31 4.32,17.34 0,10.86 -3.23,19.45 -9.68,25.74 -6.43,6.3 -15.99,9.45 -28.68,9.45 -11.53,0 -20.86,-2.98 -28,-8.95 -7.12,-5.96 -11.26,-14.37 -12.41,-25.21 l -25.55,2.02 c 1.07,9.03 3.54,16.9 7.42,23.59 3.88,6.7 8.79,12.25 14.74,16.67 5.96,4.41 12.77,7.7 20.42,9.88 7.67,2.19 15.82,3.29 24.45,3.29 11.42,0 21.24,-1.41 29.47,-4.23 8.25,-2.81 14.99,-6.64 20.23,-11.47 5.23,-4.83 9.08,-10.5 11.54,-17 2.48,-6.5 3.73,-13.43 3.73,-20.79 0,-5.92 -0.84,-11.47 -2.5,-16.63 -1.66,-5.15 -4.26,-9.78 -7.79,-13.91 -3.52,-4.1 -8,-7.64 -13.43,-10.61 -5.44,-2.95 -11.98,-5.19 -19.63,-6.72 v -0.6 c 8.43,-0.88 15.77,-2.78 22.02,-5.68 6.26,-2.89 11.41,-6.49 15.47,-10.82 4.08,-4.3 7.14,-9.2 9.18,-14.7 2.04,-5.5 3.06,-11.29 3.06,-17.36"
         style="fill:#000000;fill-opacity:1;fill-rule:nonzero;stroke:none"
         id="path252"
         inkscape:connector-curvature="0" /><path
         d="m 9103.65,4733.03 c 0,-9.54 -1.54,-18.05 -4.62,-25.52 -3.08,-7.45 -7.6,-13.76 -13.54,-18.93 -5.92,-5.14 -13.26,-9.07 -22.02,-11.77 -8.76,-2.69 -18.77,-4.03 -30.04,-4.03 -12.82,0 -23.62,1.58 -32.4,4.73 -8.76,3.15 -15.98,7.31 -21.65,12.51 -5.68,5.21 -9.94,11.13 -12.78,17.76 -2.84,6.65 -4.7,13.52 -5.59,20.62 l 27.68,2.46 c 0.77,-5.5 2.2,-10.51 4.29,-15.03 2.11,-4.51 4.96,-8.37 8.55,-11.61 3.59,-3.24 8.02,-5.75 13.27,-7.52 5.26,-1.75 11.49,-2.63 18.7,-2.63 13.23,0 23.62,3.35 31.16,10.05 7.55,6.72 11.32,16.7 11.32,29.94 0,7.8 -1.71,14.08 -5.13,18.83 -3.39,4.76 -7.63,8.48 -12.71,11.14 -5.07,2.66 -10.6,4.43 -16.56,5.32 -5.97,0.91 -11.47,1.36 -16.5,1.36 h -15.1 V 4792 h 14.27 c 4.96,0 10.12,0.5 15.46,1.5 5.35,1.02 10.23,2.85 14.64,5.49 4.42,2.66 8.05,6.24 10.92,10.74 2.88,4.53 4.32,10.31 4.32,17.34 0,10.86 -3.23,19.45 -9.68,25.74 -6.43,6.3 -15.99,9.45 -28.68,9.45 -11.53,0 -20.86,-2.98 -28,-8.95 -7.12,-5.96 -11.26,-14.37 -12.41,-25.21 l -25.55,2.02 c 1.06,9.03 3.53,16.9 7.42,23.59 3.88,6.7 8.79,12.25 14.74,16.67 5.96,4.41 12.77,7.7 20.42,9.88 7.67,2.19 15.82,3.29 24.45,3.29 11.42,0 21.24,-1.41 29.47,-4.23 8.25,-2.81 14.99,-6.64 20.23,-11.47 5.23,-4.83 9.08,-10.5 11.54,-17 2.48,-6.5 3.73,-13.43 3.73,-20.79 0,-5.92 -0.84,-11.47 -2.5,-16.63 -1.66,-5.15 -4.26,-9.78 -7.79,-13.91 -3.52,-4.1 -8,-7.64 -13.43,-10.61 -5.44,-2.95 -11.98,-5.19 -19.63,-6.72 v -0.6 c 8.43,-0.88 15.77,-2.78 22.02,-5.68 6.26,-2.89 11.41,-6.49 15.47,-10.82 4.08,-4.3 7.14,-9.2 9.18,-14.7 2.04,-5.5 3.06,-11.29 3.06,-17.36"
         style="fill:#000000;fill-opacity:1;fill-rule:nonzero;stroke:none"
         id="path256"
         inkscape:connector-curvature="0" /><path
         d="m 9249.8,4719.62 v -44.71 h -25.54 v 44.71 h -97.94 v 20.52 l 95.18,139.15 h 28.3 v -138.38 h 28.84 v -21.29 h -28.84 m -25.54,130.13 c -0.21,-0.48 -0.7,-1.44 -1.5,-2.86 -0.78,-1.39 -1.66,-2.97 -2.66,-4.72 -0.98,-1.75 -1.99,-3.54 -3.03,-5.36 -1.04,-1.79 -1.95,-3.28 -2.73,-4.45 l -53.49,-77.71 c -0.51,-0.78 -1.23,-1.8 -2.16,-3.06 -0.93,-1.27 -1.9,-2.56 -2.89,-3.89 -0.98,-1.31 -1.96,-2.6 -2.96,-3.86 -0.98,-1.27 -1.77,-2.24 -2.37,-2.93 h 73.79 v 108.84"
         style="fill:#000000;fill-opacity:1;fill-rule:nonzero;stroke:none"
         id="path258"
         inkscape:connector-curvature="0" /><path
         d="m 11675.3,4733.03 c 0,-9.54 -1.5,-18.05 -4.6,-25.52 -3.1,-7.45 -7.6,-13.76 -13.6,-18.93 -5.9,-5.14 -13.2,-9.07 -22,-11.77 -8.7,-2.69 -18.8,-4.03 -30,-4.03 -12.8,0 -23.6,1.58 -32.4,4.73 -8.8,3.15 -16,7.31 -21.7,12.51 -5.7,5.21 -9.9,11.13 -12.8,17.76 -2.8,6.65 -4.6,13.52 -5.5,20.62 l 27.6,2.46 c 0.8,-5.5 2.2,-10.51 4.3,-15.03 2.1,-4.51 5,-8.37 8.6,-11.61 3.6,-3.24 8,-5.75 13.3,-7.52 5.2,-1.75 11.4,-2.63 18.6,-2.63 13.3,0 23.7,3.35 31.2,10.05 7.6,6.72 11.3,16.7 11.3,29.94 0,7.8 -1.7,14.08 -5.1,18.83 -3.4,4.76 -7.6,8.48 -12.7,11.14 -5.1,2.66 -10.6,4.43 -16.6,5.32 -5.9,0.91 -11.4,1.36 -16.5,1.36 h -15.1 V 4792 h 14.3 c 5,0 10.1,0.5 15.5,1.5 5.3,1.02 10.2,2.85 14.6,5.49 4.4,2.66 8.1,6.24 10.9,10.74 2.9,4.53 4.3,10.31 4.3,17.34 0,10.86 -3.2,19.45 -9.6,25.74 -6.5,6.3 -16,9.45 -28.7,9.45 -11.5,0 -20.9,-2.98 -28,-8.95 -7.1,-5.96 -11.3,-14.37 -12.4,-25.21 l -25.6,2.02 c 1.1,9.03 3.6,16.9 7.4,23.59 3.9,6.7 8.8,12.25 14.8,16.67 5.9,4.41 12.7,7.7 20.4,9.88 7.7,2.19 15.8,3.29 24.4,3.29 11.5,0 21.3,-1.41 29.5,-4.23 8.3,-2.81 15,-6.64 20.2,-11.47 5.3,-4.83 9.1,-10.5 11.6,-17 2.5,-6.5 3.7,-13.43 3.7,-20.79 0,-5.92 -0.8,-11.47 -2.5,-16.63 -1.6,-5.15 -4.2,-9.78 -7.8,-13.91 -3.5,-4.1 -8,-7.64 -13.4,-10.61 -5.4,-2.95 -12,-5.19 -19.6,-6.72 v -0.6 c 8.4,-0.88 15.7,-2.78 22,-5.68 6.2,-2.89 11.4,-6.49 15.5,-10.82 4,-4.3 7.1,-9.2 9.1,-14.7 2.1,-5.5 3.1,-11.29 3.1,-17.36"
         style="fill:#000000;fill-opacity:1;fill-rule:nonzero;stroke:none"
         id="path262"
         inkscape:connector-curvature="0" /><path
         d="m 11844.9,4743.17 c 0,-10.33 -1.5,-19.83 -4.4,-28.47 -2.8,-8.63 -7.1,-16.05 -12.7,-22.26 -5.6,-6.19 -12.6,-11.01 -20.9,-14.47 -8.2,-3.46 -17.8,-5.19 -28.7,-5.19 -12,0 -22.4,2.27 -31.4,6.82 -9,4.57 -16.5,11.13 -22.4,19.7 -6,8.58 -10.5,19.09 -13.5,31.53 -2.9,12.46 -4.4,26.65 -4.4,42.55 0,18.2 1.7,34.18 5,47.93 3.4,13.77 8.2,25.26 14.5,34.46 6.3,9.23 14,16.16 23.1,20.79 9.1,4.66 19.4,6.99 30.8,6.99 7,0 13.6,-0.73 19.7,-2.19 6.1,-1.45 11.7,-3.8 16.7,-7.06 5,-3.24 9.4,-7.53 13.1,-12.87 3.8,-5.32 6.8,-11.87 9.1,-19.63 l -25.6,-4.52 c -2.7,8.8 -7,15.17 -13,19.09 -6,3.93 -12.9,5.89 -20.8,5.89 -7.2,0 -13.7,-1.7 -19.5,-5.09 -5.8,-3.39 -10.8,-8.47 -14.9,-15.24 -4.1,-6.73 -7.2,-15.2 -9.4,-25.38 -2.2,-10.17 -3.3,-22.06 -3.3,-35.66 4.9,9.18 11.6,16.17 20.4,20.96 8.7,4.79 18.7,7.19 30,7.19 9.4,0 18,-1.52 25.6,-4.56 7.7,-3.02 14.3,-7.39 19.7,-13.11 5.5,-5.7 9.7,-12.62 12.7,-20.76 3,-8.13 4.5,-17.28 4.5,-27.44 m -27.7,-1.6 c 0,7.04 -0.9,13.4 -2.6,19.1 -1.8,5.7 -4.4,10.54 -7.9,14.54 -3.5,4.01 -7.9,7.1 -13,9.28 -5.2,2.17 -11.2,3.26 -18,3.26 -4.8,0 -9.6,-0.7 -14.5,-2.1 -4.8,-1.4 -9.2,-3.67 -13.2,-6.82 -3.9,-3.13 -7.1,-7.25 -9.6,-12.37 -2.5,-5.1 -3.7,-11.32 -3.7,-18.66 0,-7.55 0.9,-14.57 2.9,-21.09 1.9,-6.5 4.7,-12.17 8.4,-17 3.6,-4.84 8,-8.65 13.2,-11.44 5.1,-2.8 10.9,-4.2 17.4,-4.2 6.3,0 12,1.09 17,3.26 5,2.17 9.3,5.31 12.8,9.42 3.5,4.1 6.2,9.09 8,14.96 1.9,5.9 2.8,12.52 2.8,19.86"
         style="fill:#000000;fill-opacity:1;fill-rule:nonzero;stroke:none"
         id="path264"
         inkscape:connector-curvature="0" /><path
         d="m 10033.2,4606.12 h 542.617 v 379.961 H 10033.2 Z"
         style="fill:#ffffff;fill-opacity:1;fill-rule:nonzero;stroke:none"
         id="path266"
         inkscape:connector-curvature="0" /><path
         d="m 10389.5,4733.03 c 0,-9.54 -1.6,-18.05 -4.6,-25.52 -3.1,-7.45 -7.6,-13.76 -13.6,-18.93 -5.9,-5.14 -13.2,-9.07 -22,-11.77 -8.8,-2.69 -18.8,-4.03 -30,-4.03 -12.9,0 -23.7,1.58 -32.4,4.73 -8.8,3.15 -16,7.31 -21.7,12.51 -5.7,5.21 -9.9,11.13 -12.8,17.76 -2.8,6.65 -4.7,13.52 -5.6,20.62 l 27.7,2.46 c 0.8,-5.5 2.2,-10.51 4.3,-15.03 2.1,-4.51 5,-8.37 8.6,-11.61 3.5,-3.24 8,-5.75 13.2,-7.52 5.3,-1.75 11.5,-2.63 18.7,-2.63 13.3,0 23.6,3.35 31.2,10.05 7.5,6.72 11.3,16.7 11.3,29.94 0,7.8 -1.7,14.08 -5.1,18.83 -3.4,4.76 -7.6,8.48 -12.7,11.14 -5.1,2.66 -10.6,4.43 -16.6,5.32 -6,0.91 -11.5,1.36 -16.5,1.36 h -15.1 V 4792 h 14.3 c 4.9,0 10.1,0.5 15.4,1.5 5.4,1.02 10.3,2.85 14.7,5.49 4.4,2.66 8,6.24 10.9,10.74 2.9,4.53 4.3,10.31 4.3,17.34 0,10.86 -3.2,19.45 -9.7,25.74 -6.4,6.3 -16,9.45 -28.6,9.45 -11.6,0 -20.9,-2.98 -28,-8.95 -7.2,-5.96 -11.3,-14.37 -12.5,-25.21 l -25.5,2.02 c 1.1,9.03 3.5,16.9 7.4,23.59 3.9,6.7 8.8,12.25 14.7,16.67 6,4.41 12.8,7.7 20.5,9.88 7.6,2.19 15.8,3.29 24.4,3.29 11.4,0 21.3,-1.41 29.5,-4.23 8.2,-2.81 15,-6.64 20.2,-11.47 5.3,-4.83 9.1,-10.5 11.6,-17 2.4,-6.5 3.7,-13.43 3.7,-20.79 0,-5.92 -0.8,-11.47 -2.5,-16.63 -1.7,-5.15 -4.3,-9.78 -7.8,-13.91 -3.5,-4.1 -8,-7.64 -13.4,-10.61 -5.5,-2.95 -12,-5.19 -19.7,-6.72 v -0.6 c 8.5,-0.88 15.8,-2.78 22.1,-5.68 6.2,-2.89 11.4,-6.49 15.4,-10.82 4.1,-4.3 7.2,-9.2 9.2,-14.7 2.1,-5.5 3.1,-11.29 3.1,-17.36"
         style="fill:#000000;fill-opacity:1;fill-rule:nonzero;stroke:none"
         id="path270"
         inkscape:connector-curvature="0" /><path
         d="m 10559,4741.57 c 0,-10.13 -1.5,-19.41 -4.6,-27.84 -3.1,-8.43 -7.6,-15.69 -13.7,-21.78 -6.1,-6.08 -13.7,-10.79 -22.7,-14.15 -9,-3.34 -19.4,-5.02 -31.3,-5.02 -10.7,0 -20.1,1.27 -28,3.79 -8,2.53 -14.7,6 -20.2,10.42 -5.5,4.41 -9.9,9.58 -13.1,15.5 -3.2,5.92 -5.5,12.27 -6.9,19.06 l 27.7,3.06 c 1.1,-3.9 2.5,-7.68 4.4,-11.34 1.9,-3.64 4.5,-6.9 7.7,-9.78 3.2,-2.87 7.3,-5.15 12,-6.86 4.8,-1.7 10.6,-2.56 17.4,-2.56 6.6,0 12.6,1.02 17.9,3.06 5.4,2.07 10,5.09 13.8,9.08 3.8,4.02 6.8,8.93 8.8,14.74 2.1,5.83 3.2,12.52 3.2,20.06 0,6.19 -1,11.88 -3,17.06 -2,5.22 -4.8,9.71 -8.5,13.48 -3.6,3.77 -8.1,6.69 -13.4,8.78 -5.3,2.1 -11.4,3.16 -18.1,3.16 -4.3,0 -8.1,-0.39 -11.7,-1.17 -3.6,-0.77 -6.9,-1.84 -10,-3.19 -3,-1.35 -5.8,-2.93 -8.3,-4.72 -2.5,-1.8 -4.8,-3.67 -7,-5.62 h -26.5 l 6.9,110.5 h 115.5 V 4858 h -90.8 l -3.9,-66.33 c 4.6,3.6 10.3,6.68 17.1,9.25 6.9,2.57 15,3.86 24.4,3.86 10,0 19,-1.53 27,-4.59 8,-3.06 14.8,-7.4 20.4,-13.01 5.6,-5.61 9.9,-12.3 13,-20.06 3,-7.74 4.5,-16.25 4.5,-25.55"
         style="fill:#000000;fill-opacity:1;fill-rule:nonzero;stroke:none"
         id="path272"
         inkscape:connector-curvature="0" /><path
         d="m 13218.3,4733.03 c 0,-9.54 -1.5,-18.05 -4.6,-25.52 -3.1,-7.45 -7.6,-13.76 -13.6,-18.93 -5.9,-5.14 -13.2,-9.07 -22,-11.77 -8.8,-2.69 -18.8,-4.03 -30,-4.03 -12.9,0 -23.6,1.58 -32.4,4.73 -8.8,3.15 -16,7.31 -21.7,12.51 -5.7,5.21 -9.9,11.13 -12.8,17.76 -2.8,6.65 -4.7,13.52 -5.5,20.62 l 27.6,2.46 c 0.8,-5.5 2.2,-10.51 4.3,-15.03 2.1,-4.51 5,-8.37 8.6,-11.61 3.6,-3.24 8,-5.75 13.2,-7.52 5.3,-1.75 11.5,-2.63 18.7,-2.63 13.3,0 23.7,3.35 31.2,10.05 7.5,6.72 11.3,16.7 11.3,29.94 0,7.8 -1.7,14.08 -5.1,18.83 -3.4,4.76 -7.6,8.48 -12.7,11.14 -5.1,2.66 -10.6,4.43 -16.6,5.32 -5.9,0.91 -11.4,1.36 -16.5,1.36 h -15.1 V 4792 h 14.3 c 5,0 10.1,0.5 15.5,1.5 5.3,1.02 10.2,2.85 14.6,5.49 4.4,2.66 8,6.24 10.9,10.74 2.9,4.53 4.3,10.31 4.3,17.34 0,10.86 -3.2,19.45 -9.6,25.74 -6.5,6.3 -16,9.45 -28.7,9.45 -11.6,0 -20.9,-2.98 -28,-8.95 -7.2,-5.96 -11.3,-14.37 -12.4,-25.21 l -25.6,2.02 c 1.1,9.03 3.5,16.9 7.4,23.59 3.9,6.7 8.8,12.25 14.8,16.67 5.9,4.41 12.7,7.7 20.4,9.88 7.7,2.19 15.8,3.29 24.4,3.29 11.5,0 21.3,-1.41 29.5,-4.23 8.3,-2.81 15,-6.64 20.2,-11.47 5.3,-4.83 9.1,-10.5 11.6,-17 2.5,-6.5 3.7,-13.43 3.7,-20.79 0,-5.92 -0.8,-11.47 -2.5,-16.63 -1.7,-5.15 -4.2,-9.78 -7.8,-13.91 -3.5,-4.1 -8,-7.64 -13.4,-10.61 -5.4,-2.95 -12,-5.19 -19.6,-6.72 v -0.6 c 8.4,-0.88 15.7,-2.78 22,-5.68 6.2,-2.89 11.4,-6.49 15.5,-10.82 4,-4.3 7.1,-9.2 9.1,-14.7 2.1,-5.5 3.1,-11.29 3.1,-17.36"
         style="fill:#000000;fill-opacity:1;fill-rule:nonzero;stroke:none"
         id="path276"
         inkscape:connector-curvature="0" /><path
         d="m 13385.7,4859.04 c -10.3,-15.75 -19.7,-30.89 -28.3,-45.42 -8.7,-14.52 -16.1,-29.14 -22.3,-43.87 -6.2,-14.73 -11,-29.84 -14.5,-45.34 -3.4,-15.5 -5.1,-32 -5.1,-49.5 h -27.7 c 0,16.43 1.9,32.55 5.8,48.34 3.9,15.79 9.2,31.28 15.8,46.47 6.6,15.21 14.3,30.16 23.1,44.84 8.8,14.68 18.1,29.16 27.9,43.44 h -110.9 v 21.29 h 136.2 v -20.25"
         style="fill:#000000;fill-opacity:1;fill-rule:nonzero;stroke:none"
         id="path278"
         inkscape:connector-curvature="0" /><path
         d="m 5879.93,2636.92 c 0,-131.36 -106.48,-237.85 -237.84,-237.85 -131.35,0 -237.84,106.49 -237.84,237.85 0,131.35 106.49,237.84 237.84,237.84 131.36,0 237.84,-106.49 237.84,-237.84"
         style="fill:#ffffff;fill-opacity:1;fill-rule:nonzero;stroke:none"
         id="path280"
         inkscape:connector-curvature="0" /><path
         d="m 5879.93,2636.92 c 0,-131.36 -106.48,-237.85 -237.84,-237.85 -131.35,0 -237.84,106.49 -237.84,237.85 0,131.35 106.49,237.84 237.84,237.84 131.36,0 237.84,-106.49 237.84,-237.84 z"
         style="fill:none;stroke:#000000;stroke-width:25.71649933;stroke-linecap:butt;stroke-linejoin:miter;stroke-miterlimit:10;stroke-dasharray:none;stroke-opacity:1"
         id="path282"
         inkscape:connector-curvature="0" /><path
         d="m 5850.41,2775.8 354.86,236.57"
         style="fill:none;stroke:#000000;stroke-width:25.71649933;stroke-linecap:butt;stroke-linejoin:miter;stroke-miterlimit:10;stroke-dasharray:none;stroke-opacity:1"
         id="path284"
         inkscape:connector-curvature="0" /><path
         d="M 5850.68,2498.11 7746.39,1236.63"
         style="fill:none;stroke:#000000;stroke-width:25.71649933;stroke-linecap:butt;stroke-linejoin:miter;stroke-miterlimit:10;stroke-dasharray:none;stroke-opacity:1"
         id="path286"
         inkscape:connector-curvature="0" /><path
         d="M 5642.09,6770.88 V 2874.76"
         style="fill:none;stroke:#000000;stroke-width:25.71649933;stroke-linecap:butt;stroke-linejoin:miter;stroke-miterlimit:10;stroke-dasharray:257.165;stroke-dashoffset:0;stroke-opacity:1"
         id="path288"
         inkscape:connector-curvature="0" /><text
         xml:space="preserve"
         style="font-style:normal;font-weight:normal;font-size:116.12610626px;line-height:125%;font-family:Sans;letter-spacing:0px;word-spacing:0px;fill:#000000;fill-opacity:1;stroke:none"
         x="669.43372"
         y="-4548.001"
         id="text3265"
         transform="scale(1,-1)"><tspan
           sodipodi:role="line"
           id="tspan3267"
           x="669.43372"
           y="-4548.001"
           style="font-size:290.3152771px">Hierarchy</tspan></text>
<text
         xml:space="preserve"
         style="font-style:normal;font-weight:normal;font-size:116.12610626px;line-height:82.99999833%;font-family:Sans;text-align:center;letter-spacing:0px;word-spacing:0px;text-anchor:middle;fill:#000000;fill-opacity:1;stroke:none"
         x="1229.189"
         y="-3667.3257"
         id="text3269"
         transform="scale(1,-1)"><tspan
           sodipodi:role="line"
           id="tspan3271"
           x="1229.189"
           y="-3667.3257"
           style="font-size:290.3152771px;line-height:82.99999833%;text-align:center;text-anchor:middle">Peer-to-peer</tspan><tspan
           sodipodi:role="line"
           x="1229.189"
           y="-3426.364"
           style="font-size:290.3152771px;line-height:82.99999833%;text-align:center;text-anchor:middle"
           id="tspan3273">network</tspan></text>
<text
         xml:space="preserve"
         style="font-style:normal;font-weight:normal;font-size:116.12610626px;line-height:125%;font-family:Sans;letter-spacing:0px;word-spacing:0px;fill:#000000;fill-opacity:1;stroke:none"
         x="7967.7026"
         y="-8532.3906"
         id="text3275"
         transform="scale(1,-1)"><tspan
           sodipodi:role="line"
           id="tspan3277"
           x="7967.7026"
           y="-8532.3906"
           style="font-size:290.3152771px">H</tspan></text>
<text
         xml:space="preserve"
         style="font-style:normal;font-weight:normal;font-size:116.12610626px;line-height:125%;font-family:Sans;letter-spacing:0px;word-spacing:0px;fill:#000000;fill-opacity:1;stroke:none"
         x="6161.2246"
         y="-6732.23"
         id="text3275-3"
         transform="scale(1,-1)"><tspan
           sodipodi:role="line"
           id="tspan3277-7"
           x="6161.2246"
           y="-6732.23"
           style="font-size:290.3152771px">H</tspan></text>
<text
         xml:space="preserve"
         style="font-style:normal;font-weight:normal;font-size:116.12610626px;line-height:125%;font-family:Sans;letter-spacing:0px;word-spacing:0px;fill:#000000;fill-opacity:1;stroke:none"
         x="8487.5312"
         y="-6732.23"
         id="text3275-2"
         transform="scale(1,-1)"><tspan
           sodipodi:role="line"
           id="tspan3277-74"
           x="8487.5312"
           y="-6732.23"
           style="font-size:290.3152771px">H</tspan></text>
<text
         xml:space="preserve"
         style="font-style:normal;font-weight:normal;font-size:116.12610626px;line-height:125%;font-family:Sans;letter-spacing:0px;word-spacing:0px;fill:#000000;fill-opacity:1;stroke:none"
         x="10804.434"
         y="-6732.23"
         id="text3275-21"
         transform="scale(1,-1)"><tspan
           sodipodi:role="line"
           id="tspan3277-4"
           x="10804.434"
           y="-6732.23"
           style="font-size:290.3152771px">H</tspan></text>
<text
         xml:space="preserve"
         style="font-style:normal;font-weight:normal;font-size:116.12610626px;line-height:125%;font-family:Sans;letter-spacing:0px;word-spacing:0px;fill:#000000;fill-opacity:1;stroke:none"
         x="3329.8164"
         y="-4674.9102"
         id="text3275-30"
         transform="scale(1,-1)"><tspan
           sodipodi:role="line"
           id="tspan3277-0"
           x="3329.8164"
           y="-4674.9102"
           style="font-size:290.3152771px">H</tspan></text>
<text
         xml:space="preserve"
         style="font-style:normal;font-weight:normal;font-size:116.12610626px;line-height:125%;font-family:Sans;letter-spacing:0px;word-spacing:0px;fill:#000000;fill-opacity:1;stroke:none"
         x="4626.4424"
         y="-4674.9102"
         id="text3275-8"
         transform="scale(1,-1)"><tspan
           sodipodi:role="line"
           id="tspan3277-79"
           x="4626.4424"
           y="-4674.9102"
           style="font-size:290.3152771px">H</tspan></text>
<text
         xml:space="preserve"
         style="font-style:normal;font-weight:normal;font-size:116.12610626px;line-height:125%;font-family:Sans;letter-spacing:0px;word-spacing:0px;fill:#000000;fill-opacity:1;stroke:none"
         x="6665.4111"
         y="-4674.9102"
         id="text3275-22"
         transform="scale(1,-1)"><tspan
           sodipodi:role="line"
           id="tspan3277-78"
           x="6665.4111"
           y="-4674.9102"
           style="font-size:290.3152771px">H</tspan></text>
<text
         xml:space="preserve"
         style="font-style:normal;font-weight:normal;font-size:116.12610626px;line-height:125%;font-family:Sans;letter-spacing:0px;word-spacing:0px;fill:#000000;fill-opacity:1;stroke:none"
         x="8724.1758"
         y="-4674.9102"
         id="text3275-1"
         transform="scale(1,-1)"><tspan
           sodipodi:role="line"
           id="tspan3277-2"
           x="8724.1758"
           y="-4674.9102"
           style="font-size:290.3152771px">H</tspan></text>
<text
         xml:space="preserve"
         style="font-style:normal;font-weight:normal;font-size:116.12610626px;line-height:125%;font-family:Sans;letter-spacing:0px;word-spacing:0px;fill:#000000;fill-opacity:1;stroke:none"
         x="10009.952"
         y="-4674.9102"
         id="text3275-82"
         transform="scale(1,-1)"><tspan
           sodipodi:role="line"
           id="tspan3277-9"
           x="10009.952"
           y="-4674.9102"
           style="font-size:290.3152771px">H</tspan></text>
<text
         xml:space="preserve"
         style="font-style:normal;font-weight:normal;font-size:116.12610626px;line-height:125%;font-family:Sans;letter-spacing:0px;word-spacing:0px;fill:#000000;fill-opacity:1;stroke:none"
         x="11309.603"
         y="-4674.9102"
         id="text3275-4"
         transform="scale(1,-1)"><tspan
           sodipodi:role="line"
           id="tspan3277-3"
           x="11309.603"
           y="-4674.9102"
           style="font-size:290.3152771px">H</tspan></text>
<text
         xml:space="preserve"
         style="font-style:normal;font-weight:normal;font-size:116.12610626px;line-height:125%;font-family:Sans;letter-spacing:0px;word-spacing:0px;fill:#000000;fill-opacity:1;stroke:none"
         x="12855.901"
         y="-4674.9102"
         id="text3275-9"
         transform="scale(1,-1)"><tspan
           sodipodi:role="line"
           id="tspan3277-20"
           x="12855.901"
           y="-4674.9102"
           style="font-size:290.3152771px">H</tspan></text>
<text
         xml:space="preserve"
         style="font-style:normal;font-weight:normal;font-size:116.12610626px;line-height:125%;font-family:Sans;letter-spacing:0px;word-spacing:0px;fill:#000000;fill-opacity:1;stroke:none"
         x="234.36743"
         y="-543.922"
         id="text3275-6"
         transform="scale(1,-1)"><tspan
           sodipodi:role="line"
           x="234.36743"
           y="-543.922"
           style="font-size:290.3152771px"
           id="tspan3398">HXX  holons</tspan></text>
</g></g></svg>